<?xml version="1.0" standalone="no"?>
<!DOCTYPE svg PUBLIC "-//W3C//DTD SVG 20010904//EN"
 "http://www.w3.org/TR/2001/REC-SVG-20010904/DTD/svg10.dtd">
<svg version="1.0" xmlns="http://www.w3.org/2000/svg"
 width="999.000000pt" height="999.000000pt" viewBox="0 0 999.000000 999.000000"
 preserveAspectRatio="xMidYMid meet">
<metadata>
Created by potrace 1.11, written by Peter Selinger 2001-2013
</metadata>
<g transform="translate(0.000000,999.000000) scale(0.100000,-0.100000)"
fill="#000000" stroke="none">
<path d="M5852 9123 c-27 -49 -133 -234 -237 -413 -103 -179 -196 -338 -205
-355 -10 -16 -50 -86 -90 -155 -40 -69 -81 -140 -91 -158 -80 -140 -172 -297
-185 -317 -9 -14 -14 -25 -11 -25 8 0 77 38 192 105 50 29 141 82 203 119 63
36 115 66 117 66 1 0 76 43 165 95 89 52 163 95 165 95 2 0 32 17 66 38 35 22
84 50 109 64 25 14 61 35 80 46 19 12 46 27 60 35 14 7 133 76 265 152 355
205 782 452 1065 615 69 40 127 74 129 76 2 2 -390 4 -871 4 l-876 0 -50 -87z"/>
<path d="M5212 8995 c-151 -51 -340 -116 -420 -143 -81 -28 -327 -112 -547
-187 -220 -75 -431 -147 -470 -160 -136 -46 -750 -255 -1425 -485 -228 -78
-431 -146 -450 -152 -19 -6 -43 -14 -53 -19 -20 -11 -24 -4 153 -309 59 -102
118 -203 130 -225 12 -22 45 -78 73 -125 50 -85 69 -118 108 -187 12 -21 38
-67 59 -103 21 -36 47 -81 58 -100 10 -19 49 -86 86 -149 36 -62 66 -116 66
-119 0 -3 6 -13 14 -21 7 -9 27 -41 43 -71 26 -48 259 -453 417 -725 29 -49
97 -166 151 -260 54 -93 99 -171 100 -173 1 -2 40 63 86 144 46 81 95 165 108
188 32 56 336 582 488 844 67 117 134 232 147 255 13 23 47 83 76 132 29 50
61 106 72 125 69 120 338 587 374 648 24 40 44 75 44 78 0 3 16 30 35 60 19
30 35 56 35 58 0 2 42 75 93 163 51 87 96 165 100 173 4 8 16 30 27 48 50 82
510 883 510 887 0 9 -10 6 -288 -90z"/>
<path d="M1662 7403 c-12 -59 -24 -124 -27 -143 -3 -19 -8 -42 -10 -50 -2 -8
-7 -31 -10 -50 -3 -19 -14 -78 -25 -130 -11 -52 -22 -108 -24 -125 -3 -16 -8
-39 -10 -50 -2 -11 -12 -60 -21 -110 -9 -49 -25 -133 -35 -185 -31 -156 -69
-353 -73 -380 -3 -14 -16 -83 -31 -155 -14 -71 -27 -141 -30 -155 -8 -50 -40
-217 -56 -296 -6 -28 -13 -64 -16 -80 -7 -42 -32 -171 -59 -309 -23 -115 -51
-262 -61 -315 -2 -14 -11 -60 -20 -103 -8 -42 -18 -90 -20 -105 -3 -15 -17
-85 -31 -157 -14 -71 -27 -141 -29 -155 -3 -14 -16 -83 -30 -155 -14 -71 -28
-141 -30 -155 -3 -14 -18 -94 -34 -177 -17 -84 -30 -161 -30 -170 0 -18 60
-19 1475 -19 811 1 1475 2 1475 4 0 4 -229 402 -588 1022 -129 223 -246 425
-260 450 -13 25 -28 50 -32 55 -4 6 -21 35 -38 65 -16 30 -66 117 -111 194
-44 76 -81 140 -81 142 0 3 -11 21 -24 42 -13 20 -109 186 -214 367 -104 182
-199 346 -210 365 -12 19 -27 46 -35 60 -7 14 -23 41 -34 60 -11 19 -44 75
-72 123 -28 49 -51 93 -51 98 0 5 -4 9 -10 9 -5 0 -10 4 -10 10 0 5 -20 44
-45 86 -25 41 -45 78 -45 81 0 3 -8 17 -19 31 -10 15 -29 47 -43 72 -24 43
-59 104 -210 365 -39 66 -73 124 -77 128 -5 4 -18 -41 -29 -100z"/>
<path d="M6674 4692 c-55 -94 -187 -323 -279 -482 -18 -30 -58 -100 -90 -155
-31 -55 -69 -121 -84 -146 -14 -25 -64 -111 -111 -192 -47 -81 -90 -155 -95
-165 -6 -9 -37 -64 -70 -122 -33 -57 -65 -114 -72 -125 -7 -11 -16 -29 -22
-40 -5 -11 -21 -37 -35 -58 -14 -21 -26 -40 -26 -42 0 -2 -23 -43 -51 -92 -28
-48 -94 -162 -147 -253 -52 -91 -136 -237 -187 -325 -51 -88 -102 -176 -113
-195 -97 -169 -133 -232 -160 -278 -18 -29 -32 -57 -32 -62 0 -6 -4 -10 -10
-10 -5 0 -10 -4 -10 -9 0 -5 -23 -49 -51 -98 -28 -48 -61 -104 -71 -123 -11
-19 -62 -107 -113 -195 -200 -345 -238 -412 -263 -455 -13 -25 -29 -51 -35
-57 -5 -7 -7 -13 -4 -13 3 0 104 57 224 126 120 70 261 151 313 181 52 30 102
58 110 64 16 10 475 274 544 313 23 13 82 47 131 76 50 29 104 60 120 70 242
139 393 226 555 320 107 62 209 121 227 131 17 10 123 71 235 135 111 65 212
123 223 129 11 6 38 22 60 36 22 13 56 33 77 44 31 17 141 80 269 155 14 8 80
46 145 83 65 38 133 76 149 86 17 10 131 76 255 147 124 71 227 132 228 137 2
4 8 7 13 7 4 0 43 20 85 45 41 25 77 45 78 45 5 0 330 191 338 199 4 3 -144
94 -330 200 -185 107 -370 214 -409 238 -40 23 -75 43 -77 43 -3 0 -63 34
-156 90 -8 5 -154 89 -324 187 -169 98 -324 188 -345 200 -20 13 -43 26 -51
30 -8 4 -122 69 -253 145 -131 76 -239 138 -240 138 -1 0 -30 -49 -63 -108z"/>
<path d="M1160 3386 c0 -2 39 -37 87 -77 48 -41 103 -88 122 -105 48 -42 202
-176 281 -244 35 -30 68 -59 74 -65 6 -5 58 -50 116 -100 58 -49 119 -102 135
-116 17 -15 86 -75 155 -134 69 -60 131 -114 138 -121 7 -7 34 -30 59 -51 26
-21 54 -45 63 -53 21 -19 67 -60 155 -135 100 -86 136 -118 155 -135 8 -8 45
-40 80 -70 36 -30 101 -86 145 -125 45 -38 125 -108 179 -155 55 -47 104 -89
110 -95 6 -5 43 -37 81 -70 39 -33 72 -62 75 -65 3 -3 52 -45 110 -94 58 -50
110 -95 115 -100 6 -6 39 -36 75 -66 36 -30 70 -59 76 -65 108 -98 365 -317
368 -314 9 12 697 1201 798 1379 28 49 167 292 178 310 70 119 432 746 450
779 14 25 28 48 31 51 3 3 8 13 12 23 6 16 -103 17 -2208 17 -1218 0 -2215 -2
-2215 -4z"/>
</g>
</svg>
