<?xml version="1.0" standalone="no"?>
<!DOCTYPE svg PUBLIC "-//W3C//DTD SVG 20010904//EN"
 "http://www.w3.org/TR/2001/REC-SVG-20010904/DTD/svg10.dtd">
<svg version="1.0" xmlns="http://www.w3.org/2000/svg"
 width="999.000000pt" height="999.000000pt" viewBox="0 0 999.000000 999.000000"
 preserveAspectRatio="xMidYMid meet">
<metadata>
Created by potrace 1.11, written by Peter Selinger 2001-2013
</metadata>
<g transform="translate(0.000000,999.000000) scale(0.100000,-0.100000)"
fill="#000000" stroke="none">
<path d="M5310 8018 c-157 -53 -629 -213 -1050 -356 -1819 -618 -1673 -567
-1682 -593 -4 -13 -48 -235 -98 -494 -418 -2172 -501 -2602 -503 -2612 -1 -7
450 -405 1003 -884 1281 -1110 1407 -1219 1413 -1219 3 0 729 418 1614 928
1996 1152 2003 1156 2003 1162 0 6 -1777 1034 -1795 1038 -12 3 -60 -78 -433
-723 l-178 -310 -606 -3 -605 -2 -293 507 c-162 280 -298 515 -303 523 -6 11
114 228 466 840 l476 824 373 217 c205 118 765 442 1243 719 479 276 879 509
890 516 16 12 -112 14 -816 16 l-835 3 -284 -97z"/>
</g>
</svg>
